<svg width="150" height="225" viewBox="0 0 150 225" fill="none" xmlns="http://www.w3.org/2000/svg">
<g clip-path="url(#clip0_2_2)">
<path d="M94.3 84.8C95.15 85.34 96.04 85.88 96.92 86.39H120.24L147.74 113.88V192.07L116.11 222.51H33L1.34 192.05V150.32H43.2C43.2 150.21 43.2 150.09 43.27 149.98C43.4148 149.516 43.6492 149.084 43.96 148.71H0V192.92L32.67 224.42H117.25L149.93 193V113.32L121.41 84.8H94.3Z" fill="white"/>
<path d="M117.26 0H32.67L0 31.4V114.5L28.52 143H41.1C41.079 142.355 41.1985 141.714 41.45 141.12H28.84L1.34 113.64V32L33 1.61H116.17L147.8 32.05V77.62H106.2C106.329 78.2455 106.312 78.8922 106.15 79.51H149.95V31.51L117.26 0Z" fill="white"/>
<path d="M66.37 137.39H30.4L5.12 112.07V33.62L34.5 5.39H114.62L144.01 33.66V73.85H79.88V90.19H118.72L144.01 115.46V190.49L114.62 218.76H34.49L5.12 190.44L5.13 154.12H46.54H66.28L66.37 137.39Z" fill="white"/>
<path d="M65.68 141.16H28.84L1.34 113.64V32.01L32.98 1.61H116.15L147.78 32.05V77.63H79.88V86.41H120.28L147.78 113.9V192.09L116.15 222.53H32.97L1.34 192.05L1.36 150.32H66.3L65.68 141.16Z" fill="white"/>
<path d="M75 79.49H149.93V31.45L117.26 0H32.67L0 31.4V114.5L28.52 143.04H65.81L66.53 148.71H0.02L0 192.92L32.67 224.42H117.25L149.93 192.97V113.31L121.41 84.8H73.14L75 79.49Z" fill="white"/>
<path d="M86 116C87.11 117.24 93.24 121.25 95.38 122.24C100.04 124.36 102.46 127.81 103.9 132.19C105.27 136.34 103.78 135.43 102.67 134.92C101.56 134.41 101.24 133.29 98.49 133.35C95.74 133.41 94.18 133.22 92.21 131.7C91.7498 131.323 91.3186 130.912 90.92 130.47H90.86C88.97 129.06 89.35 133.75 89.73 134.52C91.09 137.22 92.02 136.12 99.88 140.23C101.059 140.782 102.112 141.571 102.973 142.548C103.833 143.526 104.482 144.67 104.88 145.91C105.51 147.69 106.16 148.2 100.45 147.42C98.0985 147.012 95.8374 146.193 93.77 145C92.26 144 89.24 144.81 89.52 147C90.92 150.39 94.52 152.51 98 152.94C101 153.31 102.4 153.94 102.94 154.62C104.61 156.48 101.54 159.19 101.54 159.19C100.01 160.93 101.66 162.98 102.79 163.59C104.64 164.51 108.2 166.59 109.4 169.59C115.59 185.25 109.6 180.77 106.66 178.97C103.72 177.17 98.11 172.56 92.99 172.97C87.87 173.38 86.17 173.63 83.15 171.27C80.13 168.91 80.41 172.73 80.41 172.73V191.63C80.6 195.86 81.41 199.89 84.81 203.32C87.62 206.13 89.81 205.6 93.72 210.32C95.55 212.51 101.51 214.87 105.49 214.91H113.11L140.23 188.8V117L117.15 94H102.15C103.42 96.06 104.15 98.75 104.68 102.67C104.68 105.04 101.52 103.89 100.49 103.28C99.6101 102.69 98.6259 102.272 97.59 102.05C95.28 101.51 89.75 99.13 88.24 98.6C87.7255 98.4125 87.1618 98.4097 86.6455 98.5921C86.1292 98.7746 85.6925 99.1309 85.41 99.6V99.6C85.03 100.31 85.83 101.76 85.83 101.76C88 106.58 91.99 106.33 96.39 109.41C102.39 113.63 99.18 114.52 97.95 113.88C96.9047 113.508 95.7785 113.425 94.69 113.64C89.82 114.95 88.36 112.97 85.51 112.23C82.66 111.49 85 114.89 86 116Z" fill="#8C1515"/>
<path d="M58.48 204.47C60.36 201.56 63.67 199.09 65.78 196.99C67.89 194.89 68.4 189.72 68.47 184.22V172.78V172.9V170.17V168.35C68.4805 168.207 68.4805 168.063 68.47 167.92V163C68.47 161.86 67.12 161.77 64.17 164.89C61.22 168.01 56.27 167.74 53.4 168C50.53 168.26 42.27 172.47 39.91 175.5C38.45 177.39 36.37 175.84 37.22 172.13C37.8245 169.781 38.5965 167.479 39.53 165.24C41.17 161.1 47.27 158.69 47.27 158.69C47.703 158.483 48.1011 158.21 48.45 157.88H8.9V188.88L36 214.94H44.72C52.93 214.55 56 208.32 58.48 204.47Z" fill="#8C1515"/>
<path d="M36 9.16L8.89 35.22V110.51L32 133.62H53.64C57.36 132.03 58.14 132.16 59.16 130.12C59.3883 129.423 59.4965 128.693 59.48 127.96C59.53 127.7 60 124.96 58.63 125.63C56.32 126.77 51.63 123.76 48.14 125.54C44.65 127.32 47.2 123.2 47.69 122.49C49.0099 120.891 50.6008 119.537 52.39 118.49L52.67 118.32C52.94 118.17 53.23 118.03 53.52 117.9C55.66 116.9 61.79 112.9 62.9 111.66C63.7828 110.725 64.4246 109.589 64.77 108.35C64.96 107.56 65.11 106.29 64.33 105.79C63.16 105.04 62.23 106.53 60.4 107.32C58.8882 108.041 57.244 108.443 55.57 108.5C54 108.5 52.51 107.97 51.57 108.11C50.63 108.25 50.07 107.56 51.8 105.86C52.2581 105.367 52.7529 104.909 53.28 104.49C57.37 101.91 61.04 101.88 63.09 97.33C63.09 97.33 64.69 93.22 61.61 94.97C59.92 95.97 59 97.33 54.16 97.33C49.32 97.33 47.45 99.55 46.63 100.54C46.63 100.54 43.35 105.04 44.17 98.73C44.99 92.42 46.23 89.23 49.26 86.73C51.86 84.62 58.35 81.73 60.68 78.67C61.88 77.5 64.89 74.13 63.14 71.26C62.41 70.06 60.61 73.18 58.75 73.58C56.65 74.13 53.95 74.81 51.89 74.41C50.131 74.0767 48.3108 74.3854 46.76 75.28C45.82 75.71 44.01 74.36 46.21 71.9C49.16 68.6 56.28 64.29 61.08 61.72C62.3741 61.1925 63.6246 60.5639 64.82 59.84H64.9C65.3656 59.6435 65.7796 59.3424 66.11 58.96C67.16 58.11 67.87 57.14 67.63 56.16C67.39 55.18 67 55 65.55 54.8C64.42 54.69 62.55 55.97 61.01 55.85C58.61 55.66 55.09 56.2 56.26 54.53C57.1589 53.3543 58.3062 52.3914 59.62 51.71C60.62 51.26 61.92 50.71 63.87 49.84C66.92 48.49 66.5 45.08 65.31 44.96C63.47 44.77 58.5 46.33 62 42.41C63.03 41.4126 64.1441 40.5059 65.33 39.7C66.5019 39.0824 67.731 38.58 69 38.2C69.83 37.91 71.95 36.05 66.89 35.86C66.89 35.86 64.06 35.93 64.61 34.66C65.05 33.81 67.53 32.28 67.53 32.28C68.5144 31.628 69.4532 30.9096 70.34 30.13C71.12 29.4 71.67 28.81 71.63 28.13C71.59 27.45 69.63 26.44 68.77 25.39C68.16 24.63 68.67 24.39 69.02 24.27C69.2342 24.2298 69.4522 24.213 69.67 24.22C71.72 24.22 72.31 22.22 73.5 16.97C73.86 15.39 73.89 15.06 74.41 15.06H74.52C74.52 15.06 75.03 17.73 75.77 20.69C76.39 22.32 77.09 23.02 78.29 23.01C78.5088 23.0041 78.7275 23.0276 78.94 23.08C79.28 23.16 79.8 23.43 79.19 24.19C78.73 24.77 77.34 25.71 77.25 26.29C76.84 27.92 78.41 28.51 80.03 28.62C82.32 28.78 81.36 30.17 78.9 31.97C76.44 33.77 82.61 37.41 82.61 37.41C86.08 40.04 83.61 40.73 82.9 41.1C82.19 41.47 80.24 42.63 82.2 43.38C84.16 44.13 86.86 46.79 86.86 46.79C90.36 50.71 85.39 49.15 83.55 49.34C82.4 49.48 82 52.9 85 54.24C89.65 56.3 90.68 56.65 92.33 57.85C95.42 60.09 93.8 62 90 61.31C88.622 60.9623 87.194 60.8574 85.78 61C84.9779 61.1245 84.1971 61.3601 83.46 61.7C83.2 62.09 82.59 63.64 87.93 65.26C91.0179 66.3825 93.8973 68.0115 96.45 70.08L140.23 70.03V35.27L113.11 9.16H36Z" fill="#8C1515"/>
<path d="M147.78 32.05L116.15 1.61H33L1.34 32V113.63L28.84 141.15H41.45C41.1868 141.677 41.0633 142.263 41.0913 142.851C41.1193 143.439 41.2979 144.01 41.61 144.51C41.9915 144.987 42.4851 145.363 43.0469 145.604C43.6086 145.845 44.2211 145.943 44.83 145.89C45.9583 145.864 47.0839 145.767 48.2 145.6V145.6C48.2 145.6 48.86 146.17 46.85 146.81C46.0382 147.009 45.2875 147.404 44.6635 147.96C44.0394 148.516 43.561 149.216 43.27 150C43.27 150.11 43.22 150.23 43.2 150.34H1.36V192.07L33 222.53H116.18L147.81 192.09V113.9L120.31 86.41H97C96 85.81 94.92 85.19 94 84.55L93.65 84.33H93.58C92.9983 83.9588 92.4405 83.5513 91.91 83.11C91.4533 82.7542 91.0284 82.3594 90.64 81.93L90.55 81.84C89.93 81.21 89.41 80.6 88.98 80.07C92.0849 80.8821 95.272 81.3383 98.48 81.43H99H99.17C99.509 81.4521 99.8445 81.5125 100.17 81.61L100.83 81.9L101.83 82.26C102.07 82.3124 102.315 82.3392 102.56 82.34C103.269 82.3329 103.962 82.1255 104.558 81.7415C105.155 81.3575 105.63 80.8127 105.93 80.17C106.292 79.3715 106.39 78.4781 106.21 77.62H147.81L147.78 32.05ZM144 73.85H100.66C101.473 74.6588 102.203 75.5465 102.84 76.5C104.84 78.83 103.1 80.1 102.17 79.71C102.17 79.71 101.45 79.37 100.99 79.19C100.145 79.0189 99.29 78.9053 98.43 78.85C96.13 78.78 89.92 78.38 86.15 76.24C84.67 75.4 84.51 77.42 85.15 79.02C86.0527 80.7095 87.2133 82.248 88.59 83.58C89.0833 84.1119 89.6183 84.6034 90.19 85.05C90.8873 85.6463 91.637 86.1785 92.43 86.64C94.43 87.93 96.63 89.12 98.26 90.18H118.69L144 115.46V190.46L114.61 218.73H34.49L5.12 190.44V154.1H48.34C47.7485 153.459 47.0762 152.898 46.34 152.43C46.34 152.43 42.92 149.53 50.86 148.54C54.32 148.12 57.94 145.99 59.35 142.61C59.62 140.39 56.6 139.56 55.09 140.61C53.0316 141.785 50.7849 142.594 48.45 143C42.74 143.78 43.39 143.27 44.02 141.49C44.5251 139.897 45.4551 138.473 46.71 137.37H30.4L5.12 112.07V33.62L34.5 5.39H114.62L144 33.66V73.85Z" fill="#8C1515"/>
<path d="M113.11 216.06H105.5C101.68 216.06 95.75 213.43 93.97 211.3C92.4131 209.353 90.473 207.747 88.27 206.58C87.0701 205.975 85.9678 205.193 85 204.26C81.5 200.75 80.86 196.67 80.69 192.79V172.79C80.6202 172.192 80.7502 171.587 81.06 171.07C81.1121 171.011 81.1769 170.964 81.2496 170.932C81.3223 170.901 81.401 170.887 81.48 170.89C82.0217 170.973 82.5246 171.221 82.92 171.6C84.5034 172.976 86.5544 173.692 88.65 173.6C89.65 173.6 90.82 173.52 92.28 173.4L92.98 173.34C97.07 173.01 101.49 175.98 104.65 178.11C105.33 178.57 105.93 178.98 106.46 179.3L107 179.63C108.21 180.39 109.72 181.34 110.83 181.34C111.062 181.352 111.294 181.303 111.502 181.2C111.71 181.097 111.889 180.942 112.02 180.75C112.58 179.92 112.94 177.86 109.66 169.54C108.44 166.46 104.9 164.33 102.91 163.34C102.494 163.104 102.13 162.785 101.841 162.403C101.552 162.021 101.344 161.585 101.23 161.12C101.178 160.822 101.194 160.516 101.277 160.225C101.36 159.934 101.508 159.665 101.71 159.44C101.79 159.38 103.61 157.74 103.71 156.05C103.732 155.759 103.694 155.467 103.598 155.191C103.501 154.916 103.349 154.663 103.15 154.45C102.43 153.58 100.75 152.99 98.01 152.65C94.95 152.27 91.23 150.37 89.79 146.95C89.7575 146.723 89.7756 146.491 89.843 146.271C89.9105 146.052 90.0255 145.85 90.18 145.68C90.441 145.417 90.7531 145.21 91.0971 145.073C91.4411 144.935 91.8097 144.87 92.18 144.88C92.6701 144.872 93.1524 145.003 93.57 145.26C95.6722 146.482 97.9745 147.322 100.37 147.74C101.585 147.934 102.811 148.054 104.04 148.1C104.81 148.1 105.23 147.97 105.43 147.67C105.63 147.37 105.51 146.82 105.28 146.21L105.12 145.75C104.697 144.496 104.026 143.341 103.146 142.353C102.267 141.365 101.196 140.565 100 140C97.8382 138.875 95.6147 137.874 93.34 137C91.29 136.19 90.74 136 89.99 134.48C89.6237 133.27 89.6237 131.98 89.99 130.77C90.09 130.61 90.17 130.61 90.21 130.61C90.3804 130.634 90.5402 130.707 90.67 130.82C91.0814 131.248 91.5261 131.643 92 132C94.1 133.62 95.76 133.77 98.47 133.71H98.67C99.2114 133.669 99.7555 133.737 100.271 133.908C100.786 134.08 101.261 134.353 101.67 134.71C101.939 134.938 102.234 135.133 102.55 135.29L102.74 135.38C103.117 135.588 103.532 135.72 103.96 135.77C104.08 135.777 104.2 135.753 104.309 135.7C104.417 135.648 104.511 135.569 104.58 135.47C104.83 135.14 104.97 134.47 104.21 132.19C102.58 127.19 99.82 124 95.52 122.04C93.42 121.04 87.34 117.11 86.25 115.89C85.16 114.67 84.25 113.04 84.49 112.55C84.49 112.55 84.49 112.43 84.83 112.43C85.0333 112.431 85.2353 112.461 85.43 112.52C86.1555 112.724 86.8615 112.992 87.54 113.32C88.8387 113.985 90.2712 114.348 91.73 114.38C92.7451 114.367 93.7539 114.219 94.73 113.94C95.1698 113.869 95.6145 113.832 96.06 113.83C96.6501 113.806 97.2379 113.916 97.78 114.15C98.0911 114.302 98.4339 114.377 98.78 114.37C99.0693 114.403 99.3615 114.342 99.6135 114.196C99.8655 114.05 100.064 113.827 100.18 113.56C100.5 112.56 99.29 111.05 96.56 109.14C95.1649 108.203 93.6811 107.406 92.13 106.76C89.53 105.59 87.48 104.66 86.13 101.6C85.85 101.1 85.49 100.15 85.71 99.74L85.78 99.61C86.0391 99.2385 86.4167 98.966 86.8508 98.837C87.285 98.708 87.7501 98.7302 88.17 98.9C88.61 99.05 89.43 99.38 90.4 99.77C92.7336 100.765 95.1206 101.63 97.55 102.36C98.5495 102.578 99.4993 102.982 100.35 103.55C101.236 104.059 102.229 104.354 103.25 104.41C103.491 104.426 103.733 104.394 103.962 104.315C104.19 104.236 104.4 104.112 104.58 103.95C104.74 103.774 104.862 103.567 104.937 103.341C105.013 103.116 105.041 102.877 105.02 102.64C104.48 98.7 103.44 95.15 102.42 93.82C101.322 92.3314 99.9798 91.0398 98.45 90C97.66 89.55 94.92 87.94 92.69 86.51L92.6 86.45C91.8229 85.9995 91.0897 85.4772 90.41 84.89C89.8465 84.4521 89.3212 83.967 88.84 83.44C87.4898 82.1406 86.3495 80.6394 85.46 78.99C85.0841 78.2419 85.0194 77.3756 85.28 76.58C85.43 76.37 85.66 76.4 86 76.58C89.81 78.74 96 79.16 98.44 79.24C99.2593 79.2952 100.074 79.4021 100.88 79.56C101.34 79.73 102.04 80.07 102.06 80.08C102.412 80.1929 102.792 80.1739 103.131 80.0267C103.469 79.8795 103.743 79.6141 103.9 79.28C104.11 78.82 104.3 77.82 103.11 76.4C102.458 75.4309 101.715 74.5268 100.89 73.7C99.5537 72.3587 98.1342 71.1028 96.64 69.94C94.89 68.58 90.55 65.79 88 65C84.61 64 83.81 63 83.64 62.54C83.6009 62.4518 83.5806 62.3565 83.5806 62.26C83.5806 62.1635 83.6009 62.0682 83.64 61.98C84.333 61.6843 85.0578 61.4696 85.8 61.34C86.197 61.2804 86.599 61.2603 87 61.28C88.0103 61.2965 89.016 61.4205 90 61.65C92.25 62.04 93.94 61.57 94.29 60.49C94.46 59.99 94.45 58.96 92.63 57.63C90.9885 56.5184 89.2191 55.6086 87.36 54.92L85.16 54C84.4792 53.7533 83.9011 53.2849 83.5184 52.6701C83.1358 52.0553 82.9708 51.3298 83.05 50.61C83.12 50.11 83.36 49.74 83.63 49.71C84.171 49.6824 84.7134 49.7059 85.25 49.78C85.75 49.78 86.25 49.86 86.72 49.86C87.35 49.86 88.11 49.79 88.36 49.23C88.61 48.67 88.24 47.87 87.13 46.63C87.02 46.52 84.36 43.91 82.36 43.16C81.96 43 81.72 42.82 81.71 42.66C81.7 42.5 82.26 41.86 83.09 41.44C83.1637 41.3975 83.2406 41.3608 83.32 41.33C83.82 41.09 84.68 40.71 84.76 39.9C84.84 39.09 84.22 38.27 82.82 37.2C81.69 36.52 78.76 34.44 78.71 33.05C78.7045 32.8958 78.7406 32.7429 78.8145 32.6074C78.8884 32.472 78.9973 32.3589 79.13 32.28C81.66 30.43 81.79 29.61 81.65 29.16C81.46 28.46 80.43 28.39 80.1 28.37C79.6674 28.3918 79.235 28.3249 78.8292 28.1736C78.4233 28.0223 78.0527 27.7897 77.74 27.49C77.6345 27.3313 77.5669 27.1504 77.5427 26.9614C77.5184 26.7723 77.538 26.5802 77.6 26.4C77.6 26.15 78.26 25.6 78.67 25.23C78.9609 24.9926 79.2318 24.7318 79.48 24.45C79.6092 24.3212 79.705 24.1627 79.759 23.9884C79.8131 23.8142 79.8237 23.6293 79.79 23.45C79.7287 23.2995 79.6291 23.1677 79.501 23.0677C79.3729 22.9677 79.2209 22.9029 79.06 22.88C78.8209 22.8235 78.5757 22.7967 78.33 22.8C77.33 22.8 76.69 22.23 76.12 20.72C75.39 17.8 74.87 15.13 74.87 15.11L74.81 14.85H74.46C73.73 14.85 73.62 15.33 73.33 16.62L73.24 17C72.07 22.19 71.5 24 69.69 24C69.4603 23.9826 69.2297 23.9826 69 24C68.8409 24.029 68.692 24.0985 68.5676 24.2018C68.4432 24.3052 68.3476 24.4389 68.29 24.59C68.2563 24.7693 68.2669 24.9542 68.321 25.1285C68.375 25.3027 68.4708 25.4612 68.6 25.59C69.0498 26.1143 69.5562 26.5872 70.11 27C70.67 27.41 71.35 27.92 71.37 28.21C71.37 28.7 70.97 29.21 70.16 29.95C69.2938 30.6986 68.3748 31.3837 67.41 32C67.15 32.17 64.84 33.61 64.41 34.53C64.3319 34.6653 64.2908 34.8188 64.2908 34.975C64.2908 35.1312 64.3319 35.2847 64.41 35.42C64.85 36.09 66.27 36.17 66.86 36.17H66.93C69.64 36.28 69.87 36.85 69.88 36.96C69.93 37.27 69.33 37.77 68.94 37.91L68.18 38.17C67.1382 38.4911 66.1328 38.9201 65.18 39.45C63.9658 40.2619 62.8278 41.1824 61.78 42.2C60.69 43.43 60.31 44.2 60.56 44.79C60.81 45.38 61.56 45.42 62.2 45.42C62.66 45.42 63.2 45.42 63.67 45.33C64.2106 45.2635 64.756 45.2434 65.3 45.27C65.56 45.27 65.8 45.67 65.88 46.18C65.9556 46.8981 65.7877 47.6207 65.4033 48.2319C65.0188 48.8431 64.44 49.3073 63.76 49.55L61.38 50.6L59.49 51.44C58.1209 52.1459 56.9281 53.1507 56 54.38C55.8632 54.5198 55.7704 54.6966 55.7331 54.8885C55.6958 55.0805 55.7156 55.2792 55.79 55.46C56.14 56.13 57.45 56.13 59.1 56.14C59.74 56.14 60.4 56.14 60.98 56.14C61.925 56.1314 62.8579 55.9271 63.72 55.54C64.2844 55.2826 64.891 55.1301 65.51 55.09C66.86 55.24 67.14 55.48 67.32 56.2C67.5 56.92 67.02 57.77 65.85 58.73C65.5547 59.0695 65.1851 59.3364 64.77 59.51L64.64 59.58C63.4517 60.2983 62.2077 60.9203 60.92 61.44C55.54 64.33 48.79 68.54 45.92 71.7C44.56 73.22 44.73 74.27 44.92 74.7C45.0764 75.0475 45.3567 75.3241 45.7063 75.4758C46.0559 75.6274 46.4494 75.6432 46.81 75.52L47.12 75.37C48.1268 74.8409 49.2429 74.5533 50.38 74.53C50.837 74.528 51.293 74.575 51.74 74.67C52.2184 74.757 52.7037 74.8005 53.19 74.8C55.0735 74.6909 56.9369 74.3552 58.74 73.8C59.7018 73.4673 60.5695 72.9082 61.27 72.17C61.78 71.72 62.35 71.17 62.63 71.17C62.63 71.17 62.72 71.17 62.8 71.3C64.41 73.94 61.65 77.09 60.36 78.36C58.91 80.29 55.79 82.13 53.04 83.75C51.6513 84.532 50.3151 85.4038 49.04 86.36C46.04 88.77 44.69 91.95 43.83 98.52C43.59 100.38 43.68 101.52 44.1 101.95C44.1724 102.039 44.264 102.11 44.3679 102.159C44.4718 102.207 44.5853 102.232 44.7 102.23C45.59 102.23 46.7 100.83 46.85 100.56C47.62 99.63 49.42 97.46 54.14 97.46C58.14 97.46 59.58 96.46 60.84 95.64C61.14 95.44 61.42 95.25 61.74 95.07C62.84 94.44 62.99 94.67 63.07 94.78C63.33 95.16 63.07 96.32 62.78 97.02C61.42 100.02 59.36 101.02 56.78 102.16C55.5061 102.704 54.2729 103.339 53.09 104.06C52.601 104.443 52.1429 104.865 51.72 105.32L51.58 105.46C50.58 106.46 50.2 107.21 50.42 107.75C50.5289 107.959 50.708 108.122 50.9257 108.212C51.1434 108.301 51.3857 108.311 51.61 108.24C52.1575 108.219 52.7055 108.269 53.24 108.39C53.9374 108.539 54.6471 108.623 55.36 108.64H55.57C57.3017 108.59 59.0043 108.182 60.57 107.44C61.1685 107.164 61.738 106.829 62.27 106.44C63.08 105.89 63.62 105.51 64.21 105.89C64.8 106.27 64.67 107.45 64.5 108.17C64.1609 109.338 63.5471 110.408 62.71 111.29C61.62 112.52 55.53 116.49 53.43 117.45C53.14 117.58 52.85 117.73 52.51 117.91L52.29 118.05C50.4538 119.125 48.8248 120.521 47.48 122.17C47.41 122.28 45.65 124.81 46.15 125.77C46.2176 125.897 46.3208 126.002 46.4469 126.071C46.573 126.14 46.7166 126.171 46.86 126.16C47.3793 126.11 47.8812 125.946 48.33 125.68C49.1138 125.298 49.9787 125.113 50.85 125.14C52.0541 125.182 53.2506 125.35 54.42 125.64C56.19 126.01 57.81 126.26 58.82 125.77C59.07 125.64 59.1 125.67 59.16 125.77C59.3753 126.444 59.3926 127.166 59.21 127.85C59.2153 128.526 59.1244 129.2 58.94 129.85C58.18 131.34 57.63 131.56 55.58 132.37C55.02 132.59 54.36 132.85 53.58 133.2C53.36 133.3 48.19 135.63 46.58 137.02C45.3164 138.185 44.3612 139.645 43.8 141.27L43.66 141.65C43.43 142.26 43.25 142.74 43.51 143.12C43.77 143.5 44.13 143.55 44.91 143.55C46.1394 143.503 47.365 143.383 48.58 143.19C50.9747 142.769 53.2766 141.93 55.38 140.71C55.7914 140.448 56.2723 140.315 56.76 140.33C57.1306 140.318 57.4997 140.383 57.8439 140.52C58.1882 140.658 58.5001 140.866 58.76 141.13C58.9145 141.3 59.0303 141.502 59.0993 141.721C59.1684 141.94 59.1891 142.172 59.16 142.4C57.71 145.81 53.99 147.72 50.94 148.1C47.62 148.51 45.83 149.29 45.47 150.48C45.4101 150.866 45.4535 151.261 45.5958 151.624C45.7381 151.988 45.9742 152.307 46.28 152.55C46.9753 153.021 47.616 153.567 48.19 154.18C48.4649 154.45 48.6833 154.772 48.8327 155.128C48.982 155.483 49.0593 155.865 49.06 156.25C49.06 156.72 48.76 157.52 47.21 158.25C46.96 158.35 40.96 160.76 39.29 164.98C38.3614 167.235 37.5863 169.55 36.97 171.91L36.89 172.3C36.7303 172.894 36.6932 173.514 36.7808 174.122C36.8685 174.731 37.0792 175.315 37.4 175.84C38.12 176.74 39.4 176.63 40.21 175.55C42.55 172.55 50.81 168.4 53.48 168.16C53.91 168.16 54.38 168.1 54.88 168.07C57.88 167.91 61.88 167.69 64.47 164.95C66.69 162.61 67.67 162.43 67.93 162.43C68.19 162.43 68.24 162.43 68.24 162.84V168.2V185.2C68.17 190.43 67.81 195.58 65.64 197.74C65.02 198.36 64.3 199.01 63.54 199.69C61.5579 201.322 59.7964 203.204 58.3 205.29C58.06 205.65 57.82 206.03 57.57 206.43C55.24 210.16 52.06 215.54 44.8 215.9H36L113.11 216.06Z" fill="#175E54"/>
<path d="M113.11 216.9H44.77H36V215.24H44.72C51.34 214.9 54.39 210.01 56.62 206.44L56.79 206.17C57.04 205.77 57.28 205.38 57.52 205.02C59.0591 202.871 60.8709 200.932 62.91 199.25C63.66 198.58 64.37 197.94 64.97 197.34C66.97 195.34 67.27 190.18 67.32 185.34V168.39C67.32 168.26 67.32 168.14 67.32 167.99V163.69C66.4614 164.251 65.6813 164.923 65 165.69C62.18 168.69 57.95 168.9 54.86 169.07C54.35 169.07 53.86 169.12 53.47 169.16C50.99 169.38 42.97 173.42 40.79 176.23C40.5708 176.562 40.2781 176.84 39.9346 177.041C39.5911 177.243 39.206 177.363 38.8088 177.392C38.4117 177.421 38.0132 177.358 37.6441 177.209C37.275 177.059 36.9452 176.827 36.68 176.53C36.017 175.592 35.7281 174.44 35.87 173.3H35.81L36.05 171.93C36.677 169.519 37.4689 167.153 38.42 164.85C40.15 160.46 46 157.98 46.77 157.66C47.54 157.34 48.09 156.81 48.13 156.35C48.1061 155.809 47.8773 155.298 47.49 154.92C46.955 154.356 46.3617 153.849 45.72 153.41C45.2654 153.069 44.9169 152.606 44.7151 152.075C44.5133 151.544 44.4664 150.967 44.58 150.41C45.05 148.84 47 147.9 50.74 147.41C53.51 147.07 56.88 145.41 58.24 142.34C58.2426 142.147 58.171 141.961 58.04 141.82C57.7251 141.555 57.34 141.388 56.9316 141.338C56.5232 141.288 56.1092 141.358 55.74 141.54C53.5338 142.835 51.1114 143.719 48.59 144.15C47.339 144.352 46.0765 144.476 44.81 144.52C44.4259 144.572 44.0349 144.527 43.672 144.391C43.3091 144.255 42.9855 144.031 42.73 143.74C42.5485 143.393 42.4579 143.005 42.4667 142.614C42.4754 142.222 42.5832 141.839 42.78 141.5L42.92 141.12C43.5204 139.363 44.5519 137.785 45.92 136.53C47.52 135.15 52.2 133 53.12 132.58C54.04 132.16 54.62 131.96 55.19 131.74C57.19 130.95 57.49 130.83 58.1 129.61C58.2311 129.067 58.2949 128.509 58.29 127.95C58.3498 127.599 58.3866 127.245 58.4 126.89C56.9805 127.064 55.5408 126.962 54.16 126.59C52.16 126.17 50 125.86 48.61 126.59C46.9 127.47 45.82 127.26 45.33 126.33C44.68 125.09 45.92 123 46.71 121.87C48.1242 120.117 49.8456 118.636 51.79 117.5L52.02 117.35L53.02 116.86C56.2187 115.175 59.2347 113.165 62.02 110.86C62.7256 110.108 63.264 109.215 63.6 108.24C63.84 107.16 63.74 106.77 63.68 106.7C63.45 106.7 63.03 107 62.68 107.25C62.1038 107.667 61.4874 108.025 60.84 108.32C59.1956 109.1 57.409 109.536 55.59 109.6H55.35C54.5902 109.584 53.8335 109.497 53.09 109.34C52.6942 109.259 52.2932 109.205 51.89 109.18H51.33C50.9799 109.206 50.6304 109.124 50.3283 108.945C50.0262 108.766 49.786 108.499 49.64 108.18C49.1 106.85 50.52 105.45 50.98 104.99C51.479 104.451 52.0208 103.952 52.6 103.5C53.8248 102.738 55.1051 102.07 56.43 101.5C58.97 100.35 60.8 99.5 62.04 96.78C62.1559 96.455 62.2429 96.1203 62.3 95.78L62.16 95.86C61.86 96.03 61.59 96.21 61.32 96.39C60.02 97.27 58.41 98.39 54.15 98.39C49.89 98.39 48.25 100.28 47.5 101.19C47.09 101.75 45.93 103.19 44.71 103.19C44.4769 103.19 44.2464 103.14 44.0342 103.043C43.822 102.947 43.633 102.806 43.48 102.63C42.88 101.95 42.74 100.72 43.02 98.54C43.91 91.73 45.35 88.41 48.53 85.84C49.8495 84.8595 51.2325 83.9676 52.67 83.17C55.36 81.58 58.41 79.78 59.75 77.99C60.86 76.89 63.04 74.45 62.4 72.42L61.88 72.88C61.0955 73.7391 60.104 74.3829 59 74.75C57.13 75.24 53.85 76.01 51.67 75.58C50.2691 75.3312 48.8253 75.5601 47.57 76.23L47.25 76.37C46.6877 76.5895 46.0624 76.5842 45.5039 76.3552C44.9454 76.1262 44.4964 75.6911 44.25 75.14C43.95 74.47 43.69 73.07 45.36 71.2C48.26 67.95 55.1 63.68 60.55 60.76C61.8197 60.244 63.0469 59.6287 64.22 58.92L64.41 58.82C64.7159 58.6961 64.992 58.5086 65.22 58.27C66.22 57.44 66.62 56.83 66.53 56.45C66.44 56.07 66.44 56.07 65.45 55.97C64.962 56.0444 64.4851 56.1788 64.03 56.37C63.1428 56.7531 62.1949 56.9765 61.23 57.03H60.95C60.38 56.98 59.75 56.98 59.13 56.98C57.19 56.98 55.66 56.98 55.13 55.86C54.9777 55.5469 54.9212 55.1959 54.9674 54.8508C55.0137 54.5057 55.1607 54.182 55.39 53.92C56.3865 52.5917 57.6723 51.5076 59.15 50.75L60.68 50L63.41 48.8C63.9231 48.6291 64.3638 48.2907 64.6613 47.8391C64.9587 47.3874 65.0957 46.8489 65.05 46.31C65.035 46.2321 65.0149 46.1553 64.99 46.08C64.5957 46.0813 64.2017 46.1046 63.81 46.15C63.21 46.21 62.67 46.25 62.19 46.25C61.71 46.25 60.3 46.25 59.79 45.13C59.28 44.01 60.19 42.72 61.15 41.65C62.2481 40.5754 63.4432 39.6046 64.72 38.75C65.7362 38.1834 66.8086 37.7243 67.92 37.38L68.54 37.17C67.9986 37.0706 67.4503 37.0138 66.9 37V37C65.77 37 64.35 36.81 63.75 35.89C63.5874 35.6436 63.4917 35.3591 63.4724 35.0646C63.4531 34.77 63.5109 34.4755 63.64 34.21C64.19 33.13 66.17 31.82 67 31.31C67.9106 30.7025 68.7792 30.0343 69.6 29.31C69.9496 29.0159 70.262 28.68 70.53 28.31C70.31 28.11 69.88 27.78 69.65 27.61C69.0207 27.1858 68.4492 26.6816 67.95 26.11C67.7257 25.8765 67.5654 25.589 67.4849 25.2754C67.4043 24.9618 67.406 24.6327 67.49 24.32C67.5877 24.0344 67.758 23.7792 67.9841 23.5793C68.2103 23.3794 68.4846 23.2418 68.78 23.18C69.0895 23.1171 69.4042 23.0836 69.72 23.08C70.79 23.08 71.28 21.96 72.46 16.73L72.55 16.34C72.84 15.05 73.09 13.94 74.48 13.92H75.48L75.68 14.8C75.68 14.86 76.19 17.47 76.92 20.39C77.49 21.85 77.92 21.85 78.33 21.85C78.6429 21.8448 78.9553 21.8784 79.26 21.95C79.5575 22.008 79.8351 22.1415 80.0663 22.3376C80.2974 22.5337 80.4743 22.7859 80.58 23.07C80.6958 23.4013 80.7149 23.7586 80.6352 24.1003C80.5555 24.4421 80.3803 24.7541 80.13 25C79.8656 25.3019 79.5781 25.5828 79.27 25.84C78.9458 26.1111 78.6447 26.4088 78.37 26.73C78.37 26.93 78.37 27.01 78.37 27.03C78.49 27.2 78.99 27.49 80.12 27.57C81.4 27.66 82.12 28.12 82.41 28.96C82.74 30.11 81.92 31.27 79.58 32.96C79.52 33.68 81.29 35.34 83.21 36.5C84.33 37.35 85.71 38.57 85.55 40C85.41 41.27 84.2 41.83 83.63 42.09L83.05 41.45L83.43 42.18C83.2441 42.2763 83.0638 42.3832 82.89 42.5C84.6601 43.4281 86.2869 44.6069 87.72 46C88.72 47.12 89.63 48.38 89.12 49.53C88.61 50.68 87.24 50.65 86.72 50.65C86.2 50.65 85.72 50.65 85.2 50.56C84.68 50.47 84.2 50.49 83.92 50.48C83.9119 50.5531 83.9119 50.6269 83.92 50.7C83.8696 51.2395 84.0032 51.7802 84.2992 52.2342C84.5951 52.6881 85.036 53.0285 85.55 53.2L87.49 54.05C89.4369 54.8119 91.2865 55.8021 93 57C95.25 58.64 95.2 60.08 95 60.79C94.51 62.3 92.45 62.97 89.78 62.51C88.5431 62.2148 87.2689 62.107 86 62.19C85.5263 62.2765 85.0587 62.3934 84.6 62.54C85.6795 63.37 86.9294 63.9506 88.26 64.24C91.05 65.08 95.53 68.02 97.14 69.24C98.6656 70.4205 100.112 71.6999 101.47 73.07C102.343 73.9395 103.127 74.8943 103.81 75.92C105.24 77.61 104.95 78.92 104.65 79.59C104.396 80.1118 103.96 80.5228 103.424 80.7457C102.888 80.9685 102.289 80.9878 101.74 80.8C101.65 80.8 101 80.45 100.58 80.29C100.36 80.23 98.73 80.04 98.44 80.03C96 80 89.93 79.54 86 77.46C86.0303 77.8592 86.1249 78.2509 86.28 78.62C87.1313 80.1688 88.2099 81.5811 89.48 82.81C90.5311 83.9075 91.7134 84.8714 93 85.68C95.25 87.13 97.83 88.68 98.84 89.23C100.453 90.3304 101.861 91.7044 103 93.29C104.12 94.75 105.2 98.37 105.76 102.5C105.807 102.858 105.774 103.221 105.663 103.564C105.551 103.908 105.365 104.221 105.117 104.483C104.868 104.745 104.565 104.948 104.228 105.077C103.891 105.206 103.53 105.258 103.17 105.23C102 105.165 100.862 104.822 99.85 104.23C99.0684 103.71 98.1969 103.341 97.28 103.14C94.8123 102.401 92.3884 101.523 90.02 100.51C89.02 100.1 88.23 99.8 87.81 99.65C87.5576 99.5721 87.2879 99.5693 87.034 99.6422C86.78 99.715 86.5528 99.8602 86.38 100.06C86.4468 100.451 86.5822 100.826 86.78 101.17C88.06 104 89.89 104.83 92.42 105.97C94.0217 106.646 95.5553 107.473 97 108.44C100.14 110.64 101.39 112.35 100.94 113.79C100.773 114.228 100.468 114.601 100.071 114.851C99.6748 115.102 99.2077 115.217 98.74 115.18C98.2681 115.19 97.8009 115.084 97.38 114.87C96.9568 114.692 96.4984 114.613 96.04 114.64C95.651 114.636 95.2625 114.669 94.88 114.74C93.841 115.031 92.7688 115.185 91.69 115.2C90.1166 115.166 88.5712 114.776 87.17 114.06C86.6185 113.8 86.0507 113.576 85.47 113.39C85.8676 114.073 86.3261 114.719 86.84 115.32C89.6252 117.625 92.6412 119.636 95.84 121.32C100.36 123.38 103.26 126.77 104.97 131.96C105.69 134.16 105.76 135.25 105.23 135.96C104.7 136.67 103.29 136.56 102.36 136.12C101.924 135.922 101.514 135.67 101.14 135.37C100.807 135.075 100.416 134.852 99.993 134.715C99.5699 134.577 99.123 134.528 98.68 134.57H97.68C95.465 134.724 93.2721 134.047 91.53 132.67C91.1989 132.41 90.885 132.13 90.59 131.83C90.5377 132.579 90.6018 133.331 90.78 134.06C91.38 135.26 91.69 135.38 93.69 136.17C95.9892 137.066 98.236 138.091 100.42 139.24C101.717 139.853 102.875 140.724 103.826 141.798C104.776 142.872 105.499 144.128 105.95 145.49L106.11 145.93C106.31 146.268 106.419 146.651 106.428 147.043C106.436 147.436 106.344 147.824 106.16 148.17C105.907 148.462 105.585 148.686 105.224 148.823C104.862 148.959 104.473 149.003 104.09 148.95C102.824 148.906 101.561 148.782 100.31 148.58C97.7827 148.164 95.3527 147.29 93.14 146C92.7696 145.823 92.3566 145.756 91.9493 145.806C91.542 145.855 91.1572 146.02 90.84 146.28C90.7108 146.422 90.6394 146.608 90.64 146.8C92 149.8 95.38 151.54 98.15 151.88C101.15 152.25 102.96 152.88 103.83 153.97C104.093 154.266 104.294 154.611 104.423 154.985C104.551 155.359 104.605 155.755 104.58 156.15C104.47 158.09 102.67 159.79 102.31 160.15C102.207 160.275 102.134 160.422 102.096 160.58C102.058 160.737 102.056 160.902 102.09 161.06C102.275 161.75 102.724 162.339 103.34 162.7C105.42 163.7 109.14 165.98 110.47 169.32C113.85 177.87 113.47 180.18 112.74 181.32C112.534 181.623 112.254 181.87 111.927 182.036C111.6 182.202 111.237 182.283 110.87 182.27C109.52 182.27 107.87 181.27 106.6 180.44L106.06 180.1C105.56 179.8 104.98 179.4 104.33 178.97C101.15 176.83 96.93 173.97 93.09 174.27L92.39 174.33C87.33 174.73 85.39 174.63 82.45 172.33C82.2065 172.132 81.9374 171.967 81.65 171.84C81.5629 172.166 81.5324 172.504 81.56 172.84V192.9C81.72 196.58 82.32 200.48 85.63 203.78C86.5359 204.653 87.5632 205.391 88.68 205.97C90.9752 207.179 92.9945 208.851 94.61 210.88C96.16 212.74 101.82 215.28 105.48 215.34H113.11V216.9ZM50.74 215.2H98.65C96.6557 214.466 94.8416 213.314 93.33 211.82C91.8429 209.945 89.9796 208.402 87.86 207.29C86.613 206.635 85.4649 205.807 84.45 204.83C80.75 201.12 80.07 196.83 79.9 192.83V172.83C79.8257 172.025 80.0343 171.218 80.49 170.55C81.12 169.86 82.16 169.96 83.49 170.98C86.11 172.98 87.65 172.98 92.27 172.63L92.98 172.58C97.26 172.21 101.9 175.28 105.17 177.48C105.9 177.97 106.46 178.35 106.95 178.65L107.5 178.98C108.57 179.66 110.02 180.57 110.89 180.57C110.986 180.581 111.084 180.566 111.172 180.525C111.26 180.484 111.336 180.42 111.39 180.34C111.78 179.76 111.99 177.62 108.95 169.9C107.82 167.08 104.49 165.08 102.6 164.14C102.069 163.845 101.606 163.443 101.239 162.959C100.872 162.476 100.61 161.921 100.47 161.33C100.393 160.909 100.414 160.476 100.532 160.065C100.65 159.654 100.861 159.276 101.15 158.96C102.048 158.219 102.677 157.204 102.94 156.07C102.955 155.888 102.932 155.705 102.871 155.533C102.811 155.36 102.715 155.203 102.59 155.07C102.18 154.58 101.06 153.93 97.97 153.55C94.68 153.14 90.65 151.07 89.08 147.34L89.02 147.1C88.9787 146.76 89.01 146.414 89.1116 146.087C89.2133 145.759 89.3832 145.457 89.61 145.2C90.1995 144.641 90.9522 144.286 91.7581 144.185C92.564 144.084 93.3811 144.244 94.09 144.64C96.0885 145.789 98.2706 146.584 100.54 146.99C101.951 147.279 103.395 147.367 104.83 147.25C104.83 147.25 104.67 146.84 104.57 146.58L104.39 146.1C104.006 144.936 103.388 143.863 102.575 142.947C101.762 142.03 100.77 141.29 99.66 140.77C97.5292 139.645 95.3356 138.644 93.09 137.77C90.98 136.94 90.2 136.63 89.3 134.85C88.95 134.16 88.66 131.41 89.3 130.34C89.7 129.69 90.41 129.58 91.18 130.15C91.604 130.6 92.0548 131.024 92.53 131.42C93.9812 132.569 95.8152 133.123 97.66 132.97H98.66C99.9159 132.886 101.156 133.291 102.12 134.1C102.345 134.286 102.59 134.447 102.85 134.58L103.05 134.68C103.316 134.826 103.603 134.93 103.9 134.99C103.909 134.131 103.728 133.281 103.37 132.5C101.82 127.78 99.2 124.71 95.13 122.85C93.13 121.92 86.82 117.85 85.58 116.49C85.58 116.49 83.07 113.62 83.68 112.26C83.82 111.94 84.39 111.44 85.6 111.77C86.3633 111.984 87.1061 112.265 87.82 112.61C89.0145 113.231 90.3343 113.573 91.68 113.61C92.6274 113.598 93.5691 113.461 94.48 113.2C94.9907 113.101 95.5097 113.05 96.03 113.05C96.7543 113.024 97.4742 113.171 98.13 113.48C98.53 113.68 99.28 113.56 99.34 113.36C99.34 113.36 99.6 112.36 96.03 109.88C94.6873 108.981 93.2607 108.214 91.77 107.59C89.09 106.38 86.77 105.35 85.29 102.01C85.16 101.78 84.41 100.32 84.9 99.4L85.01 99.2C85.2833 98.8322 85.6372 98.532 86.0446 98.3222C86.4519 98.1125 86.9019 97.9988 87.36 97.99C87.7011 97.9927 88.0393 98.0536 88.36 98.17C88.79 98.33 89.57 98.63 90.51 99.01C92.8398 100.009 95.2235 100.877 97.65 101.61C98.7492 101.851 99.7937 102.296 100.73 102.92C101.36 103.29 103.4 103.92 103.9 103.42C103.9 103.42 104.1 103.22 104.1 102.7C103.6 99.06 102.59 95.59 101.67 94.38C100.665 92.9449 99.4241 91.6905 98 90.67C97 90.08 94.37 88.54 92.21 87.16C91.3706 86.6693 90.5774 86.1037 89.84 85.47C89.2639 85.0213 88.7224 84.5299 88.22 84C86.8052 82.6272 85.6141 81.0414 84.69 79.3C84.4456 78.8065 84.3101 78.2663 84.2929 77.7159C84.2756 77.1655 84.377 76.6178 84.59 76.11C84.6915 75.972 84.8196 75.8557 84.9669 75.7681C85.1141 75.6805 85.2774 75.6234 85.4471 75.6001C85.6168 75.5767 85.7895 75.5877 85.9549 75.6324C86.1203 75.677 86.2751 75.7544 86.41 75.86C90.06 77.94 96.06 78.34 98.47 78.42C99.3637 78.4749 100.253 78.5918 101.13 78.77C101.66 78.98 102.41 79.33 102.43 79.34C102.574 79.3476 102.717 79.314 102.843 79.2432C102.969 79.1724 103.072 79.0672 103.14 78.94C103.25 78.71 103.4 78.06 102.47 76.94C101.83 75.9858 101.1 75.0951 100.29 74.28C98.9864 72.9693 97.6003 71.7435 96.14 70.61C94.48 69.36 90.14 66.61 87.78 65.87C84.89 64.99 83.28 64.02 82.88 62.87C82.8113 62.6666 82.7864 62.4509 82.8071 62.2371C82.8278 62.0234 82.8935 61.8165 83 61.63L83.13 61.38L83.38 61.26C84.1348 60.9304 84.9275 60.6952 85.74 60.56C87.2156 60.4251 88.7033 60.5195 90.15 60.84C90.579 60.9182 91.014 60.9584 91.45 60.96C92.68 60.96 93.36 60.59 93.45 60.23C93.54 59.87 93.28 59.17 92.09 58.3C90.5032 57.228 88.7945 56.3485 87 55.68L84.87 54.75C84.0216 54.4285 83.3049 53.8327 82.8338 53.0572C82.3627 52.2818 82.1643 51.3711 82.27 50.47C82.2859 50.096 82.4235 49.7374 82.6617 49.4486C82.8999 49.1599 83.2258 48.9567 83.59 48.87C84.1374 48.8441 84.686 48.8642 85.23 48.93C85.86 48.93 86.34 49.02 86.77 49.02C87.5 49.02 87.64 48.89 87.66 48.88C87.68 48.87 87.74 48.5 86.56 47.18C85.2662 45.8601 83.7667 44.7591 82.12 43.92C81.36 43.63 80.96 43.22 80.93 42.69C80.93 41.84 81.93 41.13 82.75 40.69L83.03 40.56C83.37 40.4 83.95 40.13 84.03 39.8C84.03 39.64 84.03 39.05 82.41 37.86C82.02 37.63 78.05 35.16 77.96 33.08C77.9522 32.7882 78.0188 32.4993 78.1535 32.2404C78.2883 31.9815 78.4866 31.7611 78.73 31.6C80.99 29.95 80.95 29.38 80.95 29.38C80.95 29.38 80.81 29.24 80.14 29.19C79.5825 29.207 79.0277 29.1073 78.511 28.8972C77.9944 28.6871 77.5274 28.3713 77.14 27.97C76.9647 27.7143 76.8494 27.4223 76.8026 27.1159C76.7559 26.8094 76.7789 26.4963 76.87 26.2C76.94 25.78 77.32 25.38 78.2 24.6C78.4549 24.3931 78.6923 24.1657 78.91 23.92C78.9854 23.8356 79.0432 23.737 79.08 23.63C78.8578 23.6002 78.6341 23.5835 78.41 23.58C76.65 23.58 75.92 22.26 75.41 20.96C74.94 19.1 74.55 17.32 74.33 16.24C74.33 16.4 74.25 16.58 74.22 16.75L74.12 17.14C73.04 21.91 72.39 24.79 69.76 24.79C69.5688 24.7876 69.3779 24.8044 69.19 24.84C69.13 24.84 69.19 24.95 69.29 25.11C69.7058 25.5649 70.1721 25.9709 70.68 26.32C71.68 27.04 72.23 27.51 72.27 28.15C72.27 29.06 71.63 29.77 70.8 30.55C69.8878 31.3512 68.9222 32.0895 67.91 32.76C66.8493 33.3319 65.9007 34.0907 65.11 35C65.18 35.17 65.73 35.42 66.86 35.42C68.48 35.48 70.53 35.7 70.71 36.92C70.85 37.81 69.81 38.57 69.22 38.77L68.45 39.04C67.4536 39.3418 66.4917 39.7473 65.58 40.25C64.4327 41.0282 63.3552 41.9048 62.36 42.87C61.22 44.15 61.36 44.53 61.36 44.53C61.36 44.53 61.5 44.67 62.24 44.67C62.7046 44.664 63.1685 44.6339 63.63 44.58C64.2273 44.5097 64.8294 44.4897 65.43 44.52C65.7947 44.6076 66.1205 44.8126 66.3572 45.1035C66.5939 45.3944 66.7284 45.7551 66.74 46.13C66.8537 47.0296 66.6583 47.9412 66.1859 48.7152C65.7135 49.4892 64.9921 50.0798 64.14 50.39L61.39 51.6L59.87 52.28C58.642 52.91 57.5721 53.809 56.74 54.91C56.6756 54.9896 56.628 55.0815 56.6 55.18C57.4415 55.3538 58.3025 55.4144 59.16 55.36C59.82 55.36 60.5 55.36 61.16 55.36C61.9727 55.3153 62.7713 55.1291 63.52 54.81C64.1534 54.5309 64.8298 54.3618 65.52 54.31H65.73C67.15 54.46 67.93 54.77 68.25 56.04C68.65 57.65 67.04 58.98 66.51 59.41C66.1589 59.8121 65.7165 60.1241 65.22 60.32C63.9899 61.0708 62.6987 61.7164 61.36 62.25C56.13 65.07 49.46 69.25 46.71 72.25C45.63 73.47 45.77 74.17 45.88 74.42C45.9413 74.5406 46.0341 74.6424 46.1485 74.7146C46.2629 74.7868 46.3947 74.8266 46.53 74.83L46.97 74.67C48.0842 74.0835 49.321 73.7683 50.58 73.75C51.0598 73.7909 51.5351 73.8746 52 74C53.81 74.36 56.84 73.65 58.62 73.19C59.4458 72.8802 60.191 72.3879 60.8 71.75C61.62 71.02 62.15 70.57 62.72 70.57H63.19L63.6 71.1C64.95 73.31 64.02 76.25 61.03 79.18C59.57 81.18 56.37 83.03 53.55 84.7C52.1819 85.4601 50.8626 86.3051 49.6 87.23C46.81 89.49 45.52 92.54 44.7 98.86C44.41 101.1 44.7 101.56 44.76 101.63C45.3593 101.333 45.8621 100.871 46.21 100.3C47.09 99.24 49.07 96.86 54.21 96.86C57.96 96.86 59.21 96.01 60.45 95.18C60.76 94.97 61.07 94.76 61.45 94.57C61.8613 94.272 62.3379 94.0766 62.84 94C63.0279 93.9952 63.2138 94.0387 63.3801 94.1262C63.5464 94.2138 63.6876 94.3424 63.79 94.5C64.36 95.33 63.79 97.01 63.59 97.5C62.07 100.86 59.79 101.89 57.14 103.09C55.898 103.621 54.695 104.24 53.54 104.94C53.1065 105.294 52.6988 105.678 52.32 106.09L52.17 106.24C51.17 107.24 51.17 107.62 51.17 107.62H51.47C52.0769 107.575 52.6873 107.622 53.28 107.76C53.9582 107.902 54.6474 107.986 55.34 108.01H55.54C57.1444 107.954 58.7202 107.569 60.17 106.88C60.7174 106.622 61.2397 106.314 61.73 105.96C62.73 105.28 63.73 104.82 64.59 105.39C65.45 105.96 65.59 106.97 65.24 108.56C65.24 109.56 63.89 111.34 63.24 112.05C62 113.45 55.7 117.48 53.69 118.41C53.41 118.53 53.14 118.67 52.82 118.84L52.58 118.99C50.8535 120.011 49.3202 121.328 48.05 122.88C47.4145 123.672 46.9881 124.61 46.81 125.61C46.87 125.52 47.17 125.49 47.81 125.14C49.61 124.22 52.29 124.57 54.45 125.02C55.96 125.34 57.62 125.56 58.31 125.22C58.5143 125.082 58.7537 125.006 59 125H59.39L59.74 125.37C60.26 126 60.11 127.37 59.97 128.13C59.9893 128.892 59.8707 129.651 59.62 130.37C58.72 132.16 57.94 132.47 55.83 133.3C55.28 133.52 54.62 133.78 53.83 134.12C51.4551 135.133 49.1816 136.368 47.04 137.81C45.8782 138.871 45.0043 140.21 44.5 141.7L44.35 142.1C44.2507 142.336 44.1737 142.58 44.12 142.83C44.12 142.83 44.33 142.83 44.82 142.83C46.0095 142.782 47.1951 142.662 48.37 142.47C50.6436 142.074 52.83 141.282 54.83 140.13C55.5365 139.731 56.3526 139.571 57.1575 139.671C57.9625 139.772 58.7137 140.129 59.3 140.69C59.5279 140.946 59.6985 141.249 59.8002 141.576C59.902 141.904 59.9326 142.25 59.89 142.59L59.83 142.83C58.26 146.55 54.24 148.63 50.95 149.03C46.95 149.52 46.29 150.45 46.18 150.83C46.01 151.39 46.71 152.01 46.72 152.02C47.4495 152.508 48.1205 153.079 48.72 153.72C49.0742 154.076 49.3539 154.499 49.5427 154.964C49.7316 155.43 49.8258 155.928 49.82 156.43C49.73 157.53 48.94 158.43 47.49 159.11L47.4 158.91L47.48 159.12L46.66 159.48C45 160.27 41.2 162.35 39.99 165.4C39.0946 167.586 38.3397 169.828 37.73 172.11L37.66 172.56C37.3887 173.524 37.511 174.556 38 175.43C38.39 175.92 39 175.76 39.5 175.15C42 171.95 50.5 167.7 53.36 167.44L54.79 167.35C57.61 167.2 61.45 166.99 63.79 164.49C65.51 162.67 66.91 161.71 67.85 161.71C68.015 161.704 68.1794 161.734 68.3314 161.799C68.4834 161.863 68.6192 161.961 68.7291 162.084C68.839 162.207 68.9203 162.353 68.9671 162.512C69.014 162.67 69.0252 162.837 69 163V168.42V185.32C68.92 191.58 68.41 196.2 66.15 198.45C65.53 199.08 64.8 199.73 64.03 200.45C62.1036 202.036 60.3866 203.861 58.92 205.88L58.21 207L58.04 207.27C56.47 209.79 54.35 213.19 50.74 215.2V215.2Z" fill="white"/>
</g>
<defs>
<clipPath id="clip0_2_2">
<rect width="149.93" height="224.42" fill="white"/>
</clipPath>
</defs>
</svg>
